# xmcd CD database file generated by OrangeCD 5.2
#
# Track frame offsets:
#	150
#	14148
#	23951
#	37751
#	51778
#	62246
#	73553
#	80623
#	92908
#	107389
#
# Disc length: 1605 seconds
#
# Revision: 0
# Processed by: cddbd v1.5.1PL0 Copyright (c) Steve Scherf et al.
# Submitted via: OrangeCD 5.2
#
DISCID=7e06430a
DTITLE=Johnny Cash - Believe In Him
DYEAR=1986
DGENRE=Country
TTITLE0=Believe In Him
TTITLE1=Another Wide River To Cross
TTITLE2=God Ain't No Stained Glass Window
TTITLE3=Over There
TTITLE4=Johnny Cash and Jessie Colter - The Old Rugged Cross
TTITLE5=My Children Walk In Truth
TTITLE6=You're Drifting Away
TTITLE7=Belshazzar
TTITLE8=Half A Mile A Day
TTITLE9=One Of These Days I'm Gonna Sit Down And Talk To Paul
EXTD=
EXTT0=
EXTT1=
EXTT2=
EXTT3=
EXTT4=
EXTT5=
EXTT6=
EXTT7=
EXTT8=
EXTT9=
PLAYORDER=
